<svg width="158" height="158" viewBox="0 0 158 158" fill="none" xmlns="http://www.w3.org/2000/svg">
<path d="M0 79C1.36596e-06 63.3753 4.63327 48.1014 13.3139 35.1099C21.9945 22.1185 34.3327 11.9928 48.768 6.01351C63.2034 0.0341912 79.0876 -1.53027 94.4121 1.51797C109.737 4.5662 123.813 12.0902 134.861 23.1386C145.91 34.1869 153.434 48.2634 156.482 63.5879C159.53 78.9124 157.966 94.7966 151.986 109.232C146.007 123.667 135.882 136.005 122.89 144.686C109.899 153.367 94.6247 158 79 158V142.2C91.4998 142.2 103.719 138.493 114.112 131.549C124.505 124.604 132.606 114.734 137.389 103.186C142.173 91.6373 143.424 78.9299 140.986 66.6703C138.547 54.4107 132.528 43.1495 123.689 34.3109C114.85 25.4722 103.589 19.453 91.3297 17.0144C79.0701 14.5758 66.3627 15.8274 54.8144 20.6108C43.2661 25.3943 33.3956 33.4948 26.4511 43.888C19.5066 54.2811 15.8 66.5002 15.8 79H0Z" fill="#EBEBEB"/>
<path d="M79 158C66.8824 158 54.9272 155.212 44.0592 149.853C33.1912 144.493 23.7018 136.706 16.3251 127.092C8.94834 117.479 3.88199 106.297 1.51796 94.4121C-0.846069 82.5273 -0.444412 70.258 2.69186 58.5533L17.9535 62.6426C15.4445 72.0064 15.1231 81.8219 17.0144 91.3297C18.9056 100.838 22.9587 109.783 28.8601 117.474C34.7615 125.165 42.353 131.395 51.0474 135.682C59.7417 139.97 69.3059 142.2 79 142.2V158Z" fill="#DF7C21"/>
<circle cx="12" cy="53" r="9" fill="white" stroke="#3EB7BB" stroke-width="6"/>
</svg>
