<svg width="158" height="161" viewBox="0 0 158 161" fill="none" xmlns="http://www.w3.org/2000/svg">
<path d="M0 82C1.36596e-06 66.3753 4.63327 51.1014 13.3139 38.1099C21.9945 25.1185 34.3327 14.9928 48.768 9.01351C63.2034 3.03419 79.0876 1.46973 94.4121 4.51797C109.737 7.5662 123.813 15.0902 134.861 26.1386C145.91 37.1869 153.434 51.2634 156.482 66.5879C159.53 81.9124 157.966 97.7966 151.986 112.232C146.007 126.667 135.882 139.005 122.89 147.686C109.899 156.367 94.6247 161 79 161V145.2C91.4998 145.2 103.719 141.493 114.112 134.549C124.505 127.604 132.606 117.734 137.389 106.186C142.173 94.6373 143.424 81.9299 140.986 69.6703C138.547 57.4107 132.528 46.1495 123.689 37.3109C114.85 28.4722 103.589 22.453 91.3297 20.0144C79.0701 17.5758 66.3627 18.8274 54.8144 23.6108C43.2661 28.3943 33.3956 36.4948 26.4511 46.888C19.5066 57.2811 15.8 69.5002 15.8 82H0Z" fill="#EBEBEB"/>
<path d="M79 161C59.8339 161 41.3215 154.032 26.9117 141.395C12.5019 128.758 3.17753 111.314 0.675855 92.3116C-1.82582 73.3095 2.66581 54.0459 13.3139 38.1099C23.962 22.174 40.0403 10.6524 58.5533 5.69186L62.6426 20.9535C47.8323 24.9219 34.9696 34.1392 26.4511 46.888C17.9327 59.6367 14.3393 75.0476 16.3407 90.2493C18.342 105.451 25.8015 119.407 37.3293 129.516C48.8572 139.626 63.6672 145.2 79 145.2V161Z" fill="#DF7C21"/>
<circle cx="62" cy="12" r="9" fill="white" stroke="#3EB7BB" stroke-width="6"/>
</svg>
