<svg width="162" height="158" viewBox="0 0 162 158" fill="none" xmlns="http://www.w3.org/2000/svg">
<path d="M0 79C1.36596e-06 63.3753 4.63327 48.1014 13.3139 35.1099C21.9945 22.1185 34.3327 11.9928 48.768 6.01351C63.2034 0.0341912 79.0876 -1.53027 94.4121 1.51797C109.737 4.5662 123.813 12.0902 134.861 23.1386C145.91 34.1869 153.434 48.2634 156.482 63.5879C159.53 78.9124 157.966 94.7966 151.986 109.232C146.007 123.667 135.882 136.005 122.89 144.686C109.899 153.367 94.6247 158 79 158V142.2C91.4998 142.2 103.719 138.493 114.112 131.549C124.505 124.604 132.606 114.734 137.389 103.186C142.173 91.6373 143.424 78.9299 140.986 66.6703C138.547 54.4107 132.528 43.1495 123.689 34.3109C114.85 25.4722 103.589 19.453 91.3297 17.0144C79.0701 14.5758 66.3627 15.8274 54.8144 20.6108C43.2661 25.3943 33.3956 33.4948 26.4511 43.888C19.5066 54.2811 15.8 66.5002 15.8 79H0Z" fill="#EBEBEB"/>
<path d="M79 158C63.6229 158 48.5801 153.512 35.7165 145.087C22.8528 136.662 12.7276 124.666 6.58247 110.571C0.437372 96.4748 -1.46039 80.892 1.12193 65.7333C3.70424 50.5746 10.6544 36.4991 21.1199 25.2329C31.5855 13.9668 45.1115 5.99984 60.0391 2.30917C74.9667 -1.3815 90.6469 -0.635449 105.157 4.45584C119.666 9.54712 132.375 18.7623 141.723 30.9712C151.072 43.1801 156.654 57.8519 157.786 73.1873L142.029 74.3498C141.124 62.0815 136.658 50.3441 129.179 40.5769C121.7 30.8098 111.533 23.4377 99.9253 19.3647C88.3175 15.2916 75.7733 14.6948 63.8313 17.6473C51.8892 20.5999 41.0684 26.9734 32.6959 35.9863C24.3235 44.9993 18.7634 56.2597 16.6975 68.3866C14.6317 80.5136 16.1499 92.9798 21.066 104.256C25.982 115.533 34.0823 125.13 44.3732 131.87C54.6641 138.61 66.6983 142.2 79 142.2V158Z" fill="#DF7C21"/>
<circle cx="150" cy="68" r="9" fill="white" stroke="#3EB7BB" stroke-width="6"/>
</svg>
